<?xml version="1.0" standalone="no"?>
<!DOCTYPE svg PUBLIC "-//W3C//DTD SVG 20010904//EN"
 "http://www.w3.org/TR/2001/REC-SVG-20010904/DTD/svg10.dtd">
<svg version="1.0" xmlns="http://www.w3.org/2000/svg"
 width="300.000000pt" height="300.000000pt" viewBox="0 0 300.000000 300.000000"
 preserveAspectRatio="xMidYMid meet">

<g transform="translate(0.000000,300.000000) scale(0.100000,-0.100000)"
fill="#000000" stroke="none">
<path d="M1320 2990 c-655 -90 -1153 -553 -1291 -1200 -33 -151 -33 -429 0
-580 130 -608 573 -1051 1181 -1181 151 -33 429 -33 580 0 608 130 1051 573
1181 1181 33 151 33 429 0 580 -130 606 -576 1054 -1176 1180 -114 24 -369 35
-475 20z m440 -194 c265 -58 481 -175 671 -365 113 -114 181 -206 248 -340
215 -427 181 -934 -92 -1341 -64 -96 -241 -273 -337 -337 -407 -273 -914 -307
-1341 -92 -134 67 -226 135 -340 248 -191 191 -307 405 -366 673 -25 117 -25
398 1 518 36 169 111 343 209 490 64 96 241 273 337 337 156 105 355 186 515
212 39 6 81 13 95 15 57 10 329 -3 400 -18z"/>
<path d="M1351 2729 c-568 -69 -1020 -530 -1081 -1103 -13 -123 1 -453 25
-572 30 -151 126 -306 289 -470 193 -193 394 -301 667 -360 118 -26 380 -26
498 0 273 59 474 167 667 360 193 193 301 394 360 667 26 118 26 380 0 498
-55 256 -162 461 -332 641 -141 147 -326 273 -449 304 -131 33 -499 53 -644
35z m-391 -388 c0 -5 -20 -33 -45 -64 -46 -55 -116 -186 -108 -199 2 -5 30 -8
62 -8 64 0 108 -21 81 -40 -8 -5 -31 -10 -50 -10 -87 0 -242 -62 -329 -130
-121 -96 -134 -283 -26 -378 56 -49 144 -78 160 -52 3 5 -2 24 -11 41 -24 47
-54 211 -53 287 2 109 8 124 59 150 73 36 75 34 72 -58 -7 -164 35 -304 119
-395 39 -42 122 -95 149 -95 5 0 10 17 10 38 1 77 65 162 123 162 22 0 21 -1
-4 -45 -49 -82 -12 -213 78 -280 23 -17 43 -41 46 -56 7 -33 53 -88 84 -100
27 -10 30 -37 8 -79 -19 -36 -62 -60 -109 -60 -32 0 -35 2 -34 29 1 38 -58
119 -120 164 -102 74 -184 100 -384 121 -164 17 -236 44 -299 113 -66 72 -91
141 -93 253 -1 92 0 97 38 169 49 90 131 162 233 204 67 27 69 29 100 95 38
80 106 160 176 207 47 32 67 36 67 16z m1214 -85 c39 -39 70 -84 94 -133 19
-41 42 -77 51 -80 168 -55 290 -183 321 -336 16 -78 5 -144 -36 -227 -65 -129
-146 -174 -352 -196 -217 -23 -314 -56 -411 -141 -56 -49 -104 -121 -99 -150
4 -23 -41 -30 -83 -12 -63 25 -92 111 -45 129 27 10 69 62 82 102 5 15 25 37
44 50 85 58 125 194 81 278 -11 22 -21 43 -21 45 0 12 37 3 64 -14 41 -28 64
-68 72 -128 3 -29 11 -53 18 -53 6 0 34 13 62 30 130 74 204 231 204 433 0 59
2 107 5 107 10 0 62 -25 88 -43 27 -18 27 -20 27 -127 0 -110 -17 -220 -45
-286 -22 -53 -20 -57 26 -50 123 20 192 104 193 237 0 58 -4 73 -34 123 -59
97 -185 172 -340 202 -120 24 -119 23 -90 39 14 8 51 14 83 15 31 0 57 2 57 5
0 22 -66 142 -109 198 -28 37 -49 72 -46 77 9 15 76 -30 139 -94z m-509 -30
c193 -50 404 -219 486 -390 23 -46 23 -46 5 -114 -18 -69 -63 -163 -81 -169
-5 -1 -18 23 -28 55 -59 185 -226 353 -409 409 -79 24 -236 21 -313 -6 -128
-46 -256 -146 -302 -235 -9 -17 -25 -44 -37 -61 -11 -16 -33 -60 -47 -98 l-25
-69 -17 26 c-29 44 -77 175 -79 215 -3 86 147 259 309 357 157 95 362 125 538
80z m-110 -366 c244 -533 232 -491 156 -530 -28 -14 -43 -30 -51 -55 -6 -19
-16 -37 -21 -41 -8 -5 -90 156 -128 253 -8 18 -17 31 -21 28 -4 -2 -36 -68
-70 -146 -64 -141 -64 -141 -82 -119 -10 12 -18 31 -18 41 0 12 -11 24 -27 30
-35 13 -73 48 -73 67 0 14 81 198 163 372 25 52 59 126 76 164 17 38 33 67 35
65 2 -2 30 -60 61 -129z m-558 -655 c46 -19 34 -29 -44 -38 -101 -11 -190 -67
-220 -136 -11 -27 -17 -31 -24 -20 -15 24 -10 81 11 125 21 43 52 70 99 85 36
12 133 3 178 -16z m1175 15 c72 -20 134 -124 113 -190 -9 -29 -17 -25 -40 18
-37 68 -110 104 -260 128 -35 5 -37 7 -20 17 56 32 147 43 207 27z m-1191
-180 c17 -33 35 -60 39 -60 4 0 18 27 33 60 14 33 30 60 35 60 12 0 94 -94
111 -127 16 -31 14 -58 -9 -105 -24 -50 -21 -54 63 -97 160 -81 333 -79 487 6
36 20 67 38 69 39 3 2 -6 26 -19 53 -15 32 -20 58 -16 75 7 29 95 148 114 154
8 2 23 -20 39 -57 14 -34 30 -61 34 -61 5 0 23 27 41 60 21 38 39 60 51 60 45
0 137 -69 137 -103 0 -11 -14 -45 -32 -76 -101 -178 -236 -300 -410 -369 -109
-43 -182 -56 -296 -50 -251 14 -502 181 -626 418 -40 75 -39 85 6 127 23 22
83 52 105 53 6 0 26 -27 44 -60z"/>
</g>
</svg>
