<?xml version="1.0" standalone="no"?>
<!DOCTYPE svg PUBLIC "-//W3C//DTD SVG 20010904//EN"
 "http://www.w3.org/TR/2001/REC-SVG-20010904/DTD/svg10.dtd">
<svg version="1.0" xmlns="http://www.w3.org/2000/svg"
 width="500.000000pt" height="500.000000pt" viewBox="0 0 500.000000 500.000000"
 preserveAspectRatio="xMidYMid meet">
<metadata>
Created by potrace 1.16, written by Peter Selinger 2001-2019
</metadata>
<g transform="translate(0.000000,500.000000) scale(0.100000,-0.100000)"
fill="#000000" stroke="none">
<path d="M1130 4989 c-336 -53 -670 -259 -883 -544 -33 -44 -64 -79 -69 -77
-5 1 -7 -2 -4 -7 8 -13 -69 -153 -79 -144 -4 5 -5 2 -1 -5 8 -14 -33 -122 -46
-122 -5 0 -7 -4 -4 -8 7 -11 -15 -82 -25 -82 -5 0 -6 -7 -3 -15 4 -8 1 -21 -5
-29 -8 -9 -10 -412 -8 -1455 2 -1221 4 -1443 16 -1450 8 -5 11 -16 8 -25 -4
-9 -2 -16 4 -16 6 0 7 -4 4 -10 -3 -5 0 -20 7 -32 7 -13 11 -26 10 -30 -1 -5
2 -8 7 -8 5 0 14 -14 20 -30 8 -24 7 -29 -2 -24 -7 4 -4 -2 6 -13 10 -12 19
-27 21 -35 1 -7 11 -29 22 -48 12 -19 32 -54 44 -78 13 -23 27 -42 32 -42 4 0
8 -6 8 -13 0 -7 9 -23 19 -34 11 -12 18 -23 15 -26 -2 -2 48 -58 111 -123 64
-66 113 -112 109 -104 -7 13 -5 13 9 1 9 -7 14 -18 10 -24 -3 -5 -2 -7 4 -4 6
4 19 -1 29 -9 10 -9 13 -12 5 -8 -9 5 -12 3 -7 -4 4 -7 16 -12 26 -12 10 0 23
-7 28 -16 5 -9 12 -16 15 -15 18 1 36 -12 30 -23 -3 -6 -3 -8 2 -4 9 8 65 -18
65 -31 0 -5 6 -8 13 -8 20 1 127 -52 127 -63 0 -6 5 -8 11 -5 15 10 70 -15 62
-28 -4 -6 -1 -7 6 -3 15 10 64 -2 57 -13 -3 -4 7 -8 22 -8 15 0 77 -10 137
-24 l110 -24 1250 0 c907 0 1262 3 1293 11 24 7 44 8 48 3 3 -5 11 -9 17 -9 7
0 6 4 -3 11 -12 8 -9 10 12 6 15 -2 29 0 30 5 3 8 53 16 111 17 10 1 16 5 12
10 -3 5 5 12 17 16 13 3 32 10 43 15 63 28 98 39 108 33 6 -4 7 -1 2 7 -6 10
-4 12 8 7 10 -3 17 -3 17 1 0 13 60 43 72 36 7 -5 8 -3 3 6 -6 10 -4 12 9 7
10 -4 15 -3 11 3 -7 11 49 42 60 32 5 -4 5 -1 1 5 -4 7 -2 14 3 14 6 1 15 2
21 3 5 0 17 11 25 24 9 12 21 20 26 17 5 -4 9 -1 9 5 0 6 5 8 10 5 6 -4 9 -1
8 6 -2 8 11 20 27 29 27 14 175 154 175 166 0 2 8 12 18 23 31 34 52 65 52 78
0 6 6 16 13 20 20 12 57 69 50 77 -3 3 -1 6 6 6 7 0 9 4 6 10 -3 5 3 17 14 27
11 9 18 20 16 24 -3 4 2 12 10 19 8 7 15 19 15 26 0 8 4 22 10 32 12 20 32 71
36 90 1 8 6 21 10 30 8 18 8 18 22 77 5 22 11 47 13 55 2 8 9 18 14 22 6 5 5
8 -3 8 -9 0 -10 5 -2 19 5 11 10 44 11 73 0 29 3 45 7 36 4 -10 6 533 5 1205
-2 1042 -5 1238 -18 1330 -18 123 -54 257 -91 336 -14 30 -23 60 -20 68 3 8 2
12 -2 9 -12 -7 -64 92 -56 106 4 6 3 8 -3 5 -5 -3 -29 23 -52 58 -166 250
-437 453 -726 544 -201 63 -143 61 -1544 60 -702 -1 -1301 -5 -1331 -10z
m1107 -1581 c12 -13 42 -81 68 -153 25 -71 57 -159 72 -195 14 -36 45 -119 68
-185 24 -66 74 -199 110 -295 37 -96 71 -186 75 -200 5 -14 42 -115 84 -224
42 -109 76 -204 76 -209 0 -6 -7 -19 -17 -29 -15 -17 -37 -18 -273 -18 -227 0
-259 2 -271 17 -13 15 -43 95 -146 388 -25 72 -49 134 -53 138 -7 8 -48 -97
-114 -290 -19 -54 -60 -165 -91 -248 -31 -82 -79 -213 -107 -290 -28 -77 -60
-150 -71 -162 l-20 -23 -377 0 c-350 0 -378 1 -393 18 -15 17 -12 30 48 192
36 96 72 194 81 216 24 67 36 73 154 76 l105 3 67 180 c37 99 92 245 122 325
54 142 105 278 190 510 119 321 168 446 183 462 14 16 36 18 213 18 191 0 197
-1 217 -22z m950 -58 c12 -30 72 -190 133 -355 61 -165 130 -347 152 -405 42
-110 146 -390 204 -549 53 -143 38 -131 164 -131 126 0 114 10 165 -130 15
-41 46 -122 67 -180 62 -164 105 -145 -339 -148 l-383 -2 -16 37 c-8 21 -40
106 -70 188 -31 83 -70 188 -89 235 -18 47 -49 130 -68 185 -20 55 -54 147
-77 205 -23 58 -53 137 -65 175 -13 39 -43 117 -65 175 -23 58 -61 159 -85
225 -24 66 -75 204 -114 307 -71 187 -77 209 -64 221 4 4 124 6 267 5 l260 -3
23 -55z"/>
<path d="M1882 13 c322 -2 853 -2 1180 0 326 1 62 2 -587 2 -649 0 -916 -1
-593 -2z"/>
</g>
</svg>
